HIERARCHY
ROOT Hips
{
    OFFSET 0.000000 0.000000 0.000000
    CHANNELS 6 Xposition Yposition Zposition Zrotation Xrotation Yrotation
    JOINT Spine
    {
        OFFSET -0.000000 14.517291 0.000000
        CHANNELS 3 Zrotation Xrotation Yrotation
        JOINT Spine1
        {
            OFFSET -0.000000 37.558300 0.000000
            CHANNELS 3 Zrotation Xrotation Yrotation
            JOINT Neck
            {
                OFFSET -0.000000 37.404057 3.400369
                CHANNELS 3 Zrotation Xrotation Yrotation
                JOINT Head
                {
                    OFFSET -0.000000 24.785618 -3.540803
                    CHANNELS 3 Zrotation Xrotation Yrotation
                    End Site
                    {
                        OFFSET -0.000000 35.408028 0.000000
                    }
                }
            }
            JOINT LeftShoulder
            {
                OFFSET 6.992933 33.973492 -0.192664
                CHANNELS 3 Zrotation Xrotation Yrotation
                JOINT LeftArm
                {
                    OFFSET 21.527611 0.000000 0.000000
                    CHANNELS 3 Zrotation Xrotation Yrotation
                    JOINT LeftForeArm
                    {
                        OFFSET 56.353916 0.000000 0.000000
                        CHANNELS 3 Zrotation Xrotation Yrotation
                        JOINT LeftHand
                        {
                            OFFSET 47.774071 0.000000 0.000000
                            CHANNELS 3 Zrotation Xrotation Yrotation
                            End Site
                            {
                                OFFSET 26.556021 0.000000 0.000000
                            }
                        }
                    }
                }
            }
            JOINT RightShoulder
            {
                OFFSET -7.065357 33.973492 -0.192664
                CHANNELS 3 Zrotation Xrotation Yrotation
                JOINT RightArm
                {
                    OFFSET -21.527611 0.000000 0.000000
                    CHANNELS 3 Zrotation Xrotation Yrotation
                    JOINT RightForeArm
                    {
                        OFFSET -56.353916 0.000000 0.000000
                        CHANNELS 3 Zrotation Xrotation Yrotation
                        JOINT RightHand
                        {
                            OFFSET -47.774071 0.000000 0.000000
                            CHANNELS 3 Zrotation Xrotation Yrotation
                            End Site
                            {
                                OFFSET -26.556021 0.000000 0.000000
                            }
                        }
                    }
                }
            }
        }
    }
    JOINT LeftUpLeg
    {
        OFFSET 17.704014 0.000000 0.000000
        CHANNELS 3 Zrotation Xrotation Yrotation
        JOINT LeftLeg
        {
            OFFSET -0.000000 -81.181816 0.000000
            CHANNELS 3 Zrotation Xrotation Yrotation
            JOINT LeftFoot
            {
                OFFSET -0.000000 -62.821102 0.000000
                CHANNELS 3 Zrotation Xrotation Yrotation
                JOINT LeftToeBase
                {
                    OFFSET -0.000000 -11.507608 26.556021
                    CHANNELS 3 Zrotation Xrotation Yrotation
                    End Site
                    {
                        OFFSET -0.000000 0.000000 7.081605
                    }
                }
            }
        }
    }
    JOINT RightUpLeg
    {
        OFFSET -17.704014 0.000000 0.000000
        CHANNELS 3 Zrotation Xrotation Yrotation
        JOINT RightLeg
        {
            OFFSET -0.000000 -81.181816 0.000000
            CHANNELS 3 Zrotation Xrotation Yrotation
            JOINT RightFoot
            {
                OFFSET -0.000000 -62.821102 0.000000
                CHANNELS 3 Zrotation Xrotation Yrotation
                JOINT RightToeBase
                {
                    OFFSET -0.000000 -11.507608 26.556021
                    CHANNELS 3 Zrotation Xrotation Yrotation
                    End Site
                    {
                        OFFSET -0.000000 0.000000 7.081605
                    }
                }
            }
        }
    }
}
MOTION
Frames:    11
Frame Time:    0.008333
33.725876    142.393036    52.861359    4.033854    2.299723    -66.299911    -0.257185    4.848208    -2.827637    -0.522316    -0.457704    -0.949500    24.959055    12.564589    22.002953    -22.510735    -0.384528    18.899025    12.107934    9.107285    -21.492476    -7.037203    8.499098    -29.606174    -13.394964    19.828785    -35.580250    -0.347876    15.844358    -41.908546    -4.423016    -3.327070    -7.973929    33.382614    -27.828238    47.689629    10.374962    -34.646973    110.492599    31.435419    -37.509830    39.245060    39.248798    -23.808306    34.110046    -39.780983    48.862339    13.605102    4.955076    -17.749844    45.028275    0.000000    0.000000    0.000000    -33.519817    -17.844702    -16.389498    3.246540    34.251774    -5.055813    21.092127    -7.165731    7.751693    0.000000    0.000000    0.000000    
33.715939    142.389435    52.848782    4.032609    2.298534    -66.298401    -0.272491    4.840812    -2.839721    -0.518716    -0.454406    -0.953729    24.957348    12.563883    22.003801    -22.502712    -0.397820    18.898357    12.119224    9.097565    -21.494551    -7.007240    8.454576    -29.590876    -13.403602    19.815205    -35.514782    -0.325769    15.827839    -41.936230    -4.415248    -3.336110    -7.973993    33.376225    -27.812061    47.694546    10.361063    -34.664028    110.500206    31.451077    -37.502907    39.259830    39.259361    -23.805586    34.100651    -39.802307    48.859394    13.638170    4.935557    -17.752850    45.007954    0.000000    0.000000    0.000000    -33.523033    -17.849272    -16.376335    3.258193    34.273590    -5.038228    21.092651    -7.192233    7.749054    0.000000    0.000000    0.000000    
33.706577    142.386246    52.839340    4.034662    2.299150    -66.301552    -0.290588    4.835087    -2.843261    -0.496217    -0.454038    -0.955051    24.943285    12.568641    22.006779    -22.514769    -0.427308    18.895657    12.119319    9.078148    -21.503323    -6.993615    8.379149    -29.579525    -13.461146    19.791552    -35.408787    -0.357478    15.810719    -41.969128    -4.429769    -3.332104    -7.979223    33.375736    -27.816160    47.689602    10.368757    -34.659393    110.522224    31.448957    -37.513260    39.259109    39.264385    -23.802126    34.111015    -39.786682    48.862495    13.611910    4.936434    -17.750195    45.020252    0.000000    0.000000    0.000000    -33.525394    -17.854704    -16.349295    3.282458    34.285587    -5.054162    21.098108    -7.213459    7.743160    0.000000    0.000000    0.000000    
33.696465    142.383835    52.832806    4.032857    2.298978    -66.299026    -0.300152    4.824814    -2.851672    -0.492795    -0.452967    -0.957964    24.935471    12.584783    22.001425    -22.506832    -0.454643    18.889891    12.124589    9.061896    -21.518072    -6.965405    8.328742    -29.565813    -13.483560    19.735222    -35.320255    -0.390641    15.769547    -41.988625    -4.430522    -3.333169    -7.974732    33.378262    -27.823055    47.680569    10.367495    -34.650112    110.532944    31.459761    -37.495163    39.285397    39.266235    -23.801035    34.120281    -39.766689    48.881134    13.575742    4.931381    -17.765835    45.025745    0.000000    0.000000    0.000000    -33.527225    -17.855036    -16.342907    3.295603    34.301975    -5.056565    21.101597    -7.224288    7.732827    0.000000    0.000000    0.000000    
33.685055    142.383057    52.830994    4.027165    2.297426    -66.293449    -0.293419    4.817196    -2.862914    -0.510047    -0.442776    -0.961690    24.941612    12.581368    21.999922    -22.513309    -0.466006    18.884083    12.141148    9.044662    -21.522663    -6.940867    8.217402    -29.572996    -13.591464    19.687119    -35.198860    -0.428534    15.716160    -41.994766    -4.419835    -3.332127    -7.983035    33.377342    -27.816288    47.691082    10.350389    -34.665821    110.539154    31.469055    -37.490295    39.279915    39.262558    -23.802311    34.120975    -39.742470    48.895195    13.567118    4.932867    -17.751545    45.004490    0.000000    0.000000    0.000000    -33.528919    -17.843708    -16.343407    3.308763    34.305157    -5.058017    21.094131    -7.237594    7.719145    0.000000    0.000000    0.000000    
33.673851    142.383331    52.824360    4.023654    2.304061    -66.290642    -0.294165    4.808426    -2.869559    -0.499435    -0.439544    -0.963803    24.923601    12.589362    22.000341    -22.508446    -0.486874    18.883717    12.135016    9.023625    -21.529413    -6.858079    8.343405    -29.558592    -13.391459    19.534658    -35.232990    -0.492959    15.642073    -42.034580    -4.431042    -3.334506    -7.986706    33.373512    -27.807207    47.688416    10.343472    -34.691067    110.552956    31.484051    -37.503201    39.286987    39.270866    -23.801153    34.128456    -39.728455    48.899429    13.545856    4.934593    -17.751669    45.019276    0.000000    0.000000    0.000000    -33.519833    -17.839802    -16.349646    3.309466    34.305176    -5.083875    21.092995    -7.219431    7.750243    0.000000    0.000000    0.000000    
33.662533    142.384369    52.817009    4.021696    2.308597    -66.286682    -0.294673    4.795944    -2.883773    -0.502697    -0.438732    -0.968616    24.909966    12.592465    22.003078    -22.484701    -0.491727    18.890291    12.152546    9.017043    -21.540447    -6.826945    8.300764    -29.541462    -13.347854    19.482370    -35.170773    -0.431632    15.587478    -42.098377    -4.431742    -3.341186    -7.972357    33.379902    -27.817581    47.672607    10.333560    -34.668571    110.547737    31.470232    -37.474567    39.280758    39.279419    -23.798508    34.124161    -39.727070    48.898018    13.532001    4.921433    -17.756130    45.019653    0.000000    0.000000    0.000000    -33.510441    -17.835400    -16.377190    3.281964    34.309677    -5.065809    21.101152    -7.220449    7.782621    0.000000    0.000000    0.000000    
33.653522    142.386765    52.813400    4.023446    2.315052    -66.279724    -0.283785    4.786958    -2.891199    -0.512903    -0.446983    -0.970978    24.912983    12.602724    22.007151    -22.494640    -0.494983    18.894882    12.160920    9.004248    -21.566048    -6.794622    8.233059    -29.503916    -13.361874    19.278172    -35.122066    -0.659133    15.465702    -42.211342    -4.432397    -3.333779    -7.981223    33.389992    -27.820738    47.678471    10.322165    -34.672195    110.551888    31.488533    -37.461685    39.274033    39.285370    -23.804543    34.129372    -39.723774    48.902615    13.553518    4.918070    -17.755274    44.991501    0.000000    0.000000    0.000000    -33.505249    -17.835217    -16.398451    3.270019    34.317516    -5.078582    21.102690    -7.207827    7.810046    0.000000    0.000000    0.000000    
33.639057    142.387390    52.812351    4.015739    2.310457    -66.278770    -0.287236    4.777429    -2.895983    -0.514571    -0.430384    -0.972478    24.894979    12.580365    22.014875    -22.466370    -0.476398    18.906010    12.165863    8.974501    -21.578678    -6.756020    8.184705    -29.487339    -13.254403    19.275822    -35.083153    -0.630692    15.491412    -42.311813    -4.435218    -3.349991    -7.989071    33.372837    -27.799570    47.658913    10.305269    -34.691418    110.548363    31.465645    -37.469189    39.264347    39.284367    -23.787815    34.120823    -39.724861    48.893772    13.548731    4.923844    -17.746437    44.989170    0.000000    0.000000    0.000000    -33.503780    -17.825241    -16.388321    3.278462    34.322876    -5.107717    21.111332    -7.210626    7.817238    0.000000    0.000000    0.000000    
33.627953    142.388184    52.814548    4.013000    2.310046    -66.280754    -0.285475    4.769496    -2.900507    -0.520373    -0.431988    -0.974060    24.897236    12.592003    22.015905    -22.474321    -0.477263    18.908493    12.179078    8.960612    -21.593414    -6.739939    8.069069    -29.464901    -13.181316    19.262501    -35.051041    -0.691513    15.527245    -42.349220    -4.431893    -3.345612    -7.983782    33.366524    -27.807512    47.651657    10.302720    -34.699055    110.545807    31.459536    -37.473549    39.269371    39.284096    -23.779558    34.137344    -39.710796    48.905247    13.537286    4.926500    -17.749395    44.986004    0.000000    0.000000    0.000000    -33.500092    -17.822584    -16.385292    3.273733    34.327770    -5.090419    21.108717    -7.216448    7.817248    0.000000    0.000000    0.000000    
33.616005    142.389893    52.816208    4.004561    2.305257    -66.274200    -0.282142    4.766716    -2.908253    -0.525690    -0.428241    -0.976586    24.907408    12.603678    22.023870    -22.500959    -0.466432    18.917683    12.180454    8.936355    -21.613209    -6.703471    8.019441    -29.431273    -13.064731    19.141941    -35.048752    -0.768357    15.469622    -42.409687    -4.439663    -3.342667    -7.990874    33.377480    -27.814947    47.650215    10.308819    -34.686184    110.542213    31.452938    -37.473984    39.252113    39.277103    -23.773312    34.139648    -39.694019    48.915051    13.526966    4.918881    -17.752760    44.974709    0.000000    0.000000    0.000000    -33.500423    -17.806929    -16.377823    3.276980    34.331402    -5.086442    21.102015    -7.224317    7.816604    0.000000    0.000000    0.000000    
